<?xml version="1.0" encoding="UTF-8" standalone="no"?>
<svg
   xmlns:dc="http://purl.org/dc/elements/1.1/"
   xmlns:cc="http://creativecommons.org/ns#"
   xmlns:rdf="http://www.w3.org/1999/02/22-rdf-syntax-ns#"
   xmlns:svg="http://www.w3.org/2000/svg"
   xmlns="http://www.w3.org/2000/svg"
   xmlns:sodipodi="http://sodipodi.sourceforge.net/DTD/sodipodi-0.dtd"
   xmlns:inkscape="http://www.inkscape.org/namespaces/inkscape"
   width="63.365059mm"
   height="12.107378mm"
   viewBox="0 0 63.365059 12.107378"
   version="1.1"
   id="svg8"
   inkscape:version="1.0.2 (e86c870879, 2021-01-15)"
   sodipodi:docname="logo.svg"
   inkscape:export-filename="/home/uhl/kamping-logo.png"
   inkscape:export-xdpi="96"
   inkscape:export-ydpi="96">
  <defs
     id="defs2" />
  <sodipodi:namedview
     id="base"
     pagecolor="#ffffff"
     bordercolor="#666666"
     borderopacity="1.0"
     inkscape:pageopacity="0.0"
     inkscape:pageshadow="2"
     inkscape:zoom="1.979899"
     inkscape:cx="126.81156"
     inkscape:cy="81.542505"
     inkscape:document-units="mm"
     inkscape:current-layer="layer1"
     inkscape:document-rotation="0"
     showgrid="false"
     inkscape:window-width="1898"
     inkscape:window-height="1023"
     inkscape:window-x="1930"
     inkscape:window-y="45"
     inkscape:window-maximized="0" />
  <metadata
     id="metadata5">
    <rdf:RDF>
      <cc:Work
         rdf:about="">
        <dc:format>image/svg+xml</dc:format>
        <dc:type
           rdf:resource="http://purl.org/dc/dcmitype/StillImage" />
        <dc:title />
      </cc:Work>
    </rdf:RDF>
  </metadata>
  <g
     inkscape:label="Layer 1"
     inkscape:groupmode="layer"
     id="layer1"
     transform="translate(-19.057022,-57.799113)">
    <text
       xml:space="preserve"
       style="font-style:normal;font-variant:normal;font-weight:normal;font-stretch:normal;font-size:10.5833px;line-height:1.25;font-family:Comfortaa;-inkscape-font-specification:'Comfortaa, Normal';font-variant-ligatures:normal;font-variant-caps:normal;font-variant-numeric:normal;font-variant-east-asian:normal;fill:#008080;fill-opacity:1;stroke:none;stroke-width:0.264583"
       x="29.262266"
       y="67.620499"
       id="text12"><tspan
         sodipodi:role="line"
         id="tspan10"
         x="29.262266"
         y="67.620499"
         style="font-style:normal;font-variant:normal;font-weight:normal;font-stretch:normal;font-size:10.5833px;font-family:Comfortaa;-inkscape-font-specification:'Comfortaa, Normal';font-variant-ligatures:normal;font-variant-caps:normal;font-variant-numeric:normal;font-variant-east-asian:normal;fill:#008080;stroke-width:0.264583">KaMPI  ng</tspan></text>
    <g
       id="g233"
       transform="matrix(0.01163366,0,0,0.01163366,62.587886,61.716979)">
      <path
         style="fill:#971d2e"
         d="m 34.595,462.184 c 0,27.51 22.307,49.816 49.816,49.816 h 343.178 v -33.211 z"
         id="path127" />
      <path
         style="fill:#be2428"
         d="M 427.589,412.368 V 478.79 H 84.411 c -27.51,0 -49.816,-7.439 -49.816,-16.605 0,-27.51 22.307,-49.816 49.816,-49.816 h 343.178 z"
         id="path129" />
      <path
         style="fill:#ffd46e"
         d="M 427.589,412.368 V 512 c 27.51,0 49.816,-22.307 49.816,-49.816 0,-27.51 -22.306,-49.816 -49.816,-49.816 z"
         id="path131" />
      <path
         style="fill:#ffe9b7"
         d="m 427.589,412.368 c 9.166,0 16.605,22.307 16.605,49.816 0,27.51 -7.439,49.816 -16.605,49.816 -27.51,0 -49.816,-22.307 -49.816,-49.816 0,-27.51 22.307,-49.816 49.816,-49.816 z"
         id="path133" />
      <path
         style="fill:#ec5123"
         d="m 401.939,205.099 -48.377,-144.744 -18,11.037 -77.99,340.964 c 84.876,-0.841 153.412,-69.898 153.412,-154.973 0,-18.343 -3.188,-35.944 -9.045,-52.284 z"
         id="path135" />
      <path
         style="fill:#f27524"
         d="m 370.666,205.099 c 4.594,16.34 7.107,33.941 7.107,52.285 0,84.931 -53.669,153.899 -120.201,154.973 -0.52,0.011 -1.052,0.011 -1.572,0.011 -85.595,0 -154.984,-69.388 -154.984,-154.984 0,-18.343 3.188,-35.945 9.044,-52.285 L 158.437,60.355 196.209,83.525 256,8.303 315.791,83.525 335.562,71.392 Z"
         id="path137" />
      <path
         style="fill:#ffd46e"
         d="M 325.488,202.475 256,115.053 v 230.893 c 48.831,0 88.562,-39.731 88.562,-88.562 0,-20.192 -6.609,-39.189 -19.074,-54.909 z"
         id="path139" />
      <path
         style="fill:#ffe9b7"
         d="m 299.429,202.475 c 7.793,15.72 11.923,34.716 11.923,54.909 0,48.831 -24.831,88.562 -55.351,88.562 -48.831,0 -88.562,-39.731 -88.562,-88.562 0,-20.192 6.609,-39.189 19.118,-54.953 L 256,115.053 Z"
         id="path141" />
      <g
         id="g147">
        <circle
           style="fill:#ec5123"
           cx="444.19501"
           cy="257.384"
           r="8.3030005"
           id="circle143" />
        <circle
           style="fill:#ec5123"
           cx="315.79099"
           cy="131.371"
           r="8.3030005"
           id="circle145" />
      </g>
      <g
         id="g155">
        <circle
           style="fill:#f27524"
           cx="158.438"
           cy="8.3030005"
           r="8.3030005"
           id="circle149" />
        <circle
           style="fill:#f27524"
           cx="67.805"
           cy="257.384"
           r="8.3030005"
           id="circle151" />
        <circle
           style="fill:#f27524"
           cx="67.805"
           cy="224.173"
           r="8.3030005"
           id="circle153" />
      </g>
      <g
         id="g161">
        <circle
           style="fill:#ffd46e"
           cx="256"
           cy="224.173"
           r="8.3030005"
           id="circle157" />
        <circle
           style="fill:#ffd46e"
           cx="289.211"
           cy="257.384"
           r="8.3030005"
           id="circle159" />
      </g>
      <g
         id="g163" />
      <g
         id="g165" />
      <g
         id="g167" />
      <g
         id="g169" />
      <g
         id="g171" />
      <g
         id="g173" />
      <g
         id="g175" />
      <g
         id="g177" />
      <g
         id="g179" />
      <g
         id="g181" />
      <g
         id="g183" />
      <g
         id="g185" />
      <g
         id="g187" />
      <g
         id="g189" />
      <g
         id="g191" />
    </g>
    <g
       id="g375"
       transform="matrix(0.02146587,0,0,0.02146587,19.057022,57.799113)">
      <g
         id="XMLID_501_">
        <path
           id="XMLID_1410_"
           style="fill:#bc3c28"
           d="m 460,445 c 0,8.284 -6.716,15 -15,15 H 420 40 15 C 6.716,460 0,453.284 0,445 0,436.716 6.716,430 15,430 h 2.609 L 210,102.222 165.249,25.979 C 158.5,14.481 166.791,0 180.124,0 v 0 c 6.118,0 11.778,3.241 14.875,8.517 L 230,68.148 265.001,8.517 C 268.098,3.241 273.758,0 279.876,0 v 0 c 13.333,0 21.624,14.481 14.875,25.979 L 250,102.222 442.391,430 H 445 c 8.284,0 15,6.716 15,15 z" />
        <path
           id="XMLID_1409_"
           style="fill:#d4632e"
           d="M 230,460 H 40 15 C 6.716,460 0,453.284 0,445 0,436.716 6.716,430 15,430 h 2.609 L 210,102.222 165.249,25.979 C 158.5,14.481 166.791,0 180.124,0 v 0 c 6.118,0 11.778,3.241 14.875,8.517 L 230,68.148 Z" />
        <path
           id="XMLID_1408_"
           style="fill:#544236"
           d="M 297.93,369.474 310,460 H 150 l 12.07,-90.526 C 166.61,335.427 195.652,310 230,310 v 0 c 34.348,0 63.39,25.427 67.93,59.474 z" />
        <path
           id="XMLID_1262_"
           style="fill:#5f4b3d"
           d="m 230,460 h -80 l 12.07,-90.526 C 166.61,335.427 195.652,310 230,310 v 0 z" />
      </g>
      <g
         id="g318" />
      <g
         id="g320" />
      <g
         id="g322" />
      <g
         id="g324" />
      <g
         id="g326" />
      <g
         id="g328" />
      <g
         id="g330" />
      <g
         id="g332" />
      <g
         id="g334" />
      <g
         id="g336" />
      <g
         id="g338" />
      <g
         id="g340" />
      <g
         id="g342" />
      <g
         id="g344" />
      <g
         id="g346" />
    </g>
  </g>
</svg>
